<?xml version="1.0" standalone="no"?><!DOCTYPE svg PUBLIC "-//W3C//DTD SVG 1.1//EN" "http://www.w3.org/Graphics/SVG/1.1/DTD/svg11.dtd"><svg t="1723798924311" class="icon" viewBox="0 0 1024 1024" version="1.1" xmlns="http://www.w3.org/2000/svg" p-id="18880" id="mx_n_1723798924313" xmlns:xlink="http://www.w3.org/1999/xlink" width="200" height="200"><path d="M336.313725 533.082353c1.003922-13.05098 12.047059-23.090196 25.09804-23.090196h28.109804s-37.145098 0-69.270589-21.082353c-50.196078-25.098039-100.392157-150.588235 6.02353-221.866667C361.411765 242.94902 401.568627 250.980392 401.568627 250.980392l-58.227451 62.243137 1.003922 46.180393s66.258824 1.003922 56.219608 53.207843c2.007843 7.027451 1.003922 13.05098 1.003921 13.05098l107.419608-4.015686s-11.043137 34.133333-32.12549 46.180392c0 4.015686 10.039216 23.090196 10.039216 23.090196s8.031373-4.015686 15.058823 3.011765c24.094118 20.078431 80.313725 72.282353 92.360785 83.32549 10.039216 8.031373 22.086275 1.003922 23.090196-9.035294 3.011765-24.094118 5.019608-30.117647 8.031372-46.180392 3.011765-24.094118 11.043137-28.109804 43.168628-23.090196 9.035294 1.003922 109.427451 17.066667 116.454902 17.066666 10.039216 0 27.105882 3.011765 45.17647-19.07451 6.023529-6.023529 8.031373-17.066667 13.050981-18.070588 14.054902-3.011765 10.039216 10.039216 7.027451 27.105883-4.015686 28.109804-16.062745 99.388235-21.082353 124.486274 0 0-14.054902 0-25.09804-10.039216-3.011765-3.011765-8.031373-7.027451-11.043137-10.039215-16.062745-15.058824-36.141176-26.101961-58.227451-26.101961h-1.003921c-15.058824 0-29.113725 4.015686-42.164706 11.043137-25.098039 15.058824-65.254902 39.152941-74.290196 44.172549-13.05098 7.027451-4.015686 22.086275 9.035294 14.054902 11.043137-7.027451 72.282353-48.188235 95.372549-55.215686s43.168627-1.003922 65.254902 29.113725c22.086275 31.121569 51.2 72.282353 51.2 72.282353l19.07451-11.043137c18.070588-10.039216 40.156863-5.019608 52.203921 11.043137l-103.403921 77.301961c-8.031373 6.023529-20.078431 5.019608-26.101961-4.015686l-55.215686-72.282353s-117.458824 88.345098-135.529412 100.392157-85.333333 38.14902-128.501961-16.062745c-1.003922 2.007843 18.070588-12.047059 36.141176-25.09804 18.070588-14.054902 22.086275-39.152941 10.039216-58.227451L441.72549 605.364706l6.02353-70.27451c1.003922-9.035294-16.062745-14.054902-16.062745 5.019608l-6.02353 67.262745 43.168628 62.243137-66.258824 48.188236-78.305882-84.329412 12.047058-100.392157z" p-id="18881" fill="#bfbfbf"></path><path d="M313.223529 512l-9.035294 100.392157-126.494117-159.62353c-8.031373-11.043137-7.027451-26.101961 3.011764-36.141176l63.247059-59.231373 3.011765 34.133334c3.011765 36.141176 18.070588 69.270588 42.164706 95.372549l24.094117 25.098039zM419.639216 737.882353l62.243137-48.188235 2.007843 3.011764c12.047059 17.066667 9.035294 41.160784-8.031372 54.211765-17.066667 13.05098-41.160784 10.039216-54.211765-6.023529l-2.007843-3.011765zM851.32549 634.478431l-6.023529-1.003921c-4.015686-1.003922-6.023529-4.015686-6.02353-8.031373l21.082353-134.52549c1.003922-4.015686 4.015686-6.023529 8.031373-6.023529l6.023529 1.003921c4.015686 1.003922 6.023529 4.015686 6.02353 8.031373l-21.082353 134.52549c-1.003922 4.015686-5.019608 6.023529-8.031373 6.023529zM810.164706 814.180392l-4.015686-5.019608c-2.007843-3.011765-2.007843-7.027451 1.003921-10.039215l108.42353-84.329412c3.011765-2.007843 7.027451-2.007843 10.039215 1.003921l4.015687 5.019608c2.007843 3.011765 2.007843 7.027451-1.003922 10.039216l-108.423529 84.329412c-3.011765 3.011765-8.031373 2.007843-10.039216-1.003922zM517.019608 399.560784s-1.003922 0 0 0c-3.011765 0-5.019608-3.011765-5.019608-5.019608v-11.043137c0-60.235294-43.168627-112.439216-101.396078-124.486274-3.011765-1.003922-4.015686-3.011765-4.015687-6.02353 1.003922-3.011765 3.011765-4.015686 6.02353-4.015686C475.858824 262.023529 522.039216 318.243137 522.039216 383.498039v12.047059c-1.003922 2.007843-3.011765 4.015686-5.019608 4.015686zM624.439216 196.768627h-33.129412c-3.011765 0-5.019608-2.007843-5.019608-5.019607s2.007843-5.019608 5.019608-5.019608h33.129412c3.011765 0 5.019608 2.007843 5.019608 5.019608s-2.007843 5.019608-5.019608 5.019607z" p-id="18882" fill="#bfbfbf"></path><path d="M608.376471 213.835294c-3.011765 0-5.019608-2.007843-5.019608-5.019608v-35.137255c0-3.011765 2.007843-5.019608 5.019608-5.019607s5.019608 2.007843 5.019607 5.019607v35.137255c0 3.011765-3.011765 5.019608-5.019607 5.019608zM118.462745 542.117647H99.388235c-2.007843 0-3.011765-1.003922-3.011764-3.011765s1.003922-3.011765 3.011764-3.011764h19.07451c2.007843 0 3.011765 1.003922 3.011765 3.011764s-1.003922 3.011765-3.011765 3.011765z" p-id="18883" fill="#bfbfbf"></path><path d="M109.427451 552.156863c-2.007843 0-3.011765-1.003922-3.011765-3.011765v-20.078431c0-2.007843 1.003922-3.011765 3.011765-3.011765s3.011765 1.003922 3.011765 3.011765v20.078431c0 2.007843-2.007843 3.011765-3.011765 3.011765z" p-id="18884" fill="#bfbfbf"></path><path d="M326.27451 188.737255m-9.035294 0a9.035294 9.035294 0 1 0 18.070588 0 9.035294 9.035294 0 1 0-18.070588 0Z" p-id="18885" fill="#bfbfbf"></path><path d="M293.145098 827.231373m-9.035294 0a9.035294 9.035294 0 1 0 18.070588 0 9.035294 9.035294 0 1 0-18.070588 0Z" p-id="18886" fill="#bfbfbf"></path><path d="M986.854902 565.207843m-6.023529 0a6.023529 6.023529 0 1 0 12.047058 0 6.023529 6.023529 0 1 0-12.047058 0Z" p-id="18887" fill="#bfbfbf"></path><path d="M677.647059 859.356863m-13.050981 0a13.05098 13.05098 0 1 0 26.101961 0 13.05098 13.05098 0 1 0-26.101961 0Z" p-id="18888" fill="#bfbfbf"></path><path d="M804.141176 379.482353m-15.058823 0a15.058824 15.058824 0 1 0 30.117647 0 15.058824 15.058824 0 1 0-30.117647 0Z" p-id="18889" fill="#bfbfbf"></path><path d="M42.164706 705.756863m-11.043137 0a11.043137 11.043137 0 1 0 22.086274 0 11.043137 11.043137 0 1 0-22.086274 0Z" p-id="18890" fill="#bfbfbf"></path></svg>