<?xml version="1.0" standalone="no"?><!DOCTYPE svg PUBLIC "-//W3C//DTD SVG 1.1//EN" "http://www.w3.org/Graphics/SVG/1.1/DTD/svg11.dtd"><svg t="1723798250223" class="icon" viewBox="0 0 1024 1024" version="1.1" xmlns="http://www.w3.org/2000/svg" p-id="12408" xmlns:xlink="http://www.w3.org/1999/xlink" width="200" height="200"><path d="M349.866667 869.546667a15.146667 15.146667 0 0 1-9.216-3.114667 377.024 377.024 0 0 1-39.296-34.218667 372.821333 372.821333 0 0 1-109.930667-265.429333c0-100.266667 39.04-194.517333 109.930667-265.408a372.928 372.928 0 0 1 265.429333-109.952c100.266667 0 194.538667 39.04 265.429333 109.952a381.312 381.312 0 0 1 35.690667 41.216 15.274667 15.274667 0 1 1-24.490667 18.282667 350.144 350.144 0 0 0-32.810666-37.888 342.528 342.528 0 0 0-243.818667-100.992A342.528 342.528 0 0 0 322.986667 322.986667a342.464 342.464 0 0 0-100.992 243.797333c0 92.096 35.84 178.688 100.992 243.818667 11.306667 11.306667 23.445333 21.909333 36.096 31.466666a15.296 15.296 0 0 1-9.216 27.477334M566.613333 942.165333a375.893333 375.893333 0 0 1-104.32-14.762666 15.296 15.296 0 0 1 8.469334-29.376 344.96 344.96 0 0 0 426.986666-428.16 15.296 15.296 0 0 1 29.333334-8.576A375.509333 375.509333 0 0 1 566.613333 942.165333" fill="#cdcdcd" p-id="12409"></path><path d="M222.784 844.224c-23.04 57.962667-25.706667 101.12-5.973333 120.853333 25.386667 25.386667 91.797333 13.226667 177.621333-32.554666 93.546667-49.898667 201.130667-133.418667 302.890667-235.2 220.48-220.48 318.08-430.186667 267.754666-480.490667-19.733333-19.733333-62.869333-17.109333-120.874666 5.973333 12.416 3.349333 21.184 9.173333 27.370666 15.36 30.485333 30.464 23.189333 90.432-21.077333 173.44-40.874667 76.650667-108.949333 164.437333-191.701333 247.168-82.730667 82.773333-170.538667 150.869333-247.210667 191.722667-82.986667 44.266667-142.954667 51.562667-173.44 21.056-6.186667-6.165333-11.989333-14.933333-15.36-27.328z m34.090667 164.650667c-26.133333 0-46.848-7.381333-61.653334-22.186667-39.530667-39.509333-25.109333-123.861333 40.554667-237.482667a15.296 15.296 0 0 1 27.52 13.013334c-15.893333 42.133333-17.173333 74.090667-3.541333 87.722666 19.114667 19.136 70.528 9.28 137.450666-26.410666 74.069333-39.488 159.296-105.685333 240-186.368 80.64-80.64 146.837333-165.888 186.325334-239.957334 35.690667-66.922667 45.568-118.293333 26.453333-137.429333-13.674667-13.653333-45.632-12.373333-87.765333 3.52a15.274667 15.274667 0 0 1-13.013334-27.52c113.621333-65.685333 197.973333-80.064 237.482667-40.576 83.136 83.136-75.904 331.882667-267.733333 523.733333-103.872 103.850667-214.016 189.290667-310.144 240.554667-61.589333 32.853333-112.832 49.386667-151.936 49.386667z" fill="#cdcdcd" p-id="12410"></path><path d="M769.28 379.584a15.232 15.232 0 0 1-10.794667-4.48 269.162667 269.162667 0 0 0-96.768-62.293333 15.274667 15.274667 0 1 1 10.666667-28.650667c40.597333 15.146667 76.842667 38.464 107.712 69.333333a15.296 15.296 0 0 1-10.816 26.090667M364.309333 379.584a15.274667 15.274667 0 0 1-10.816-26.090667 300.586667 300.586667 0 0 1 242.474667-86.954666 15.296 15.296 0 1 1-2.944 30.442666 270.570667 270.570667 0 0 0-217.92 78.122667 15.274667 15.274667 0 0 1-10.794667 4.48M367.424 569.066667a37.930667 37.930667 0 0 0-26.773333 64.661333 37.909333 37.909333 0 0 0 53.568-53.568 37.802667 37.802667 0 0 0-26.794667-11.093333z m0 106.282666a68.202667 68.202667 0 0 1-48.384-20.010666 68.501333 68.501333 0 0 1 0-96.810667 68.522667 68.522667 0 0 1 96.789333 0 68.544 68.544 0 0 1 0 96.810667 68.224 68.224 0 0 1-48.405333 20.010666zM847.594667 799.061333a18.517333 18.517333 0 0 1-2.56-0.213333 60.8 60.8 0 0 1-32.789334-102.912 60.8 60.8 0 0 1 85.930667 0 15.296 15.296 0 0 1-21.610667 21.632c-11.413333-11.413333-31.317333-11.413333-42.730666 0a30.016 30.016 0 0 0-8.832 21.354667c0 8.085333 3.136 15.658667 8.832 21.354666 4.48 4.48 10.090667 7.381333 16.298666 8.426667a15.274667 15.274667 0 0 1-2.538666 30.357333M114.773333 30.570667A84.309333 84.309333 0 0 0 30.570667 114.773333 84.309333 84.309333 0 0 0 114.773333 198.997333a84.309333 84.309333 0 0 0 84.224-84.202666A84.309333 84.309333 0 0 0 114.773333 30.570667z m0 198.997333A114.901333 114.901333 0 0 1 0 114.794667 114.922667 114.922667 0 0 1 114.773333 0a114.922667 114.922667 0 0 1 114.794667 114.794667 114.922667 114.922667 0 0 1-114.773333 114.773333zM314.282667 106.389333c-20.906667 0-37.888 17.002667-37.888 37.866667 0 20.906667 16.981333 37.888 37.888 37.888 20.864 0 37.866667-16.981333 37.866666-37.888 0-20.864-17.002667-37.866667-37.866666-37.866667z m0 106.325334a68.522667 68.522667 0 0 1-68.48-68.458667 68.522667 68.522667 0 0 1 68.48-68.437333 68.522667 68.522667 0 0 1 68.437333 68.437333c0 37.76-30.72 68.48-68.437333 68.48zM106.602667 434.261333a16.96 16.96 0 0 0 0 33.877334 16.96 16.96 0 0 0 0-33.877334z m0 64.426667A47.573333 47.573333 0 0 1 59.093333 451.2c0-26.176 21.333333-47.488 47.509334-47.488 26.197333 0 47.509333 21.333333 47.509333 47.488a47.573333 47.573333 0 0 1-47.509333 47.530667z" fill="#cdcdcd" p-id="12411"></path></svg>