<?xml version="1.0" standalone="no"?><!DOCTYPE svg PUBLIC "-//W3C//DTD SVG 1.1//EN" "http://www.w3.org/Graphics/SVG/1.1/DTD/svg11.dtd"><svg t="1723799315383" class="icon" viewBox="0 0 2436 1024" version="1.1" xmlns="http://www.w3.org/2000/svg" p-id="52771" xmlns:xlink="http://www.w3.org/1999/xlink" width="475.78125" height="200"><path d="M1476.584 491.749c4.014 9.365 11.555 14.596 21.285 16.177 7.419 1.216 15.082 1.581 23.596 2.433 0.851 3.892 1.703 8.149 2.919 12.406 1.946 6.933 3.527 14.231 6.568 20.677 3.284 6.811 4.622 12.771-1.095 17.758 1.46 1.946 2.311 3.162 3.649 5.108-11.19 2.797-5.717 12.041-7.906 18.123-2.433 6.568 3.284 15.447 10.217 16.298 8.757 1.095 9.122 5.96 9.244 12.528 0.243 9.73 3.284 18.123 13.258 25.542 5.595-6.811 11.19-13.623 18.488-22.623 3.284 3.649 5.23 5.838 6.69 7.541-2.433 4.5-3.771 7.176-5.23 9.974 1.946 1.46 3.162 3.162 4.5 3.284 11.92 1.216 20.312 9.001 29.678 15.325 3.649 2.433 7.784 5.23 11.92 5.595 12.406 1.216 24.934 2.068 37.34 1.946 14.109-0.122 24.448-7.298 31.016-19.826 4.622-8.757 4.622-9.122-4.135-16.298 3.527-3.892 3.041-7.298-0.243-12.285-3.406-5.352-0.73-13.866-7.419-18.488-0.365-0.243 0.122-1.581 0.122-2.311 0.365-5.23 0.608-10.46 0.973-15.69 2.068-30.651 5.352-61.18 5.96-91.83 0.365-17.636-4.135-35.273-5.473-52.909-2.676-35.151-10.217-69.572-16.663-104.115-4.744-25.421-11.433-50.476-18.001-75.532-3.041-11.555-2.797-22.745 0.487-32.84-3.041-7.055-5.838-13.136-8.271-19.461-5.108-13.136-9.244-26.88-20.677-36.611-2.189-1.824-3.527-5.717-3.527-8.636 0-8.757-3.892-13.623-13.136-14.839-4.5 1.824-8.879 8.028-15.933 3.527-0.243-2.433-0.487-5.108-0.851-7.906-2.919 0-7.298-0.487-7.419 0.122-1.824 7.663-9.001 6.081-13.744 7.419-7.784 2.311-16.055 5.96-24.326 0.122-1.338-0.973-3.892-0.122-5.838-0.243-11.555-0.365-22.258 7.541-34.178 3.284-0.973-0.365-2.797 1.216-4.135 2.068-6.081 3.892-11.19 3.041-14.231-4.014-7.663 6.69-7.663 6.69-18.123 4.744-1.095-0.243-2.433-0.243-3.527 0.122-6.446 2.189-13.258 3.771-18.974 7.055-5.96 3.406-9.974 10.582-18.488 7.298-0.122 0-0.73 0.487-0.851 0.851-2.919 6.933-8.879 5.108-14.474 5.473-4.5 0.365-9.122 2.433-13.258 4.622-4.865 2.554-9.001 6.325-13.744 9.244-9.001 5.352-20.069 6.446-27.853 14.109-1.581 1.581-4.744 3.041-6.568 2.554-7.541-1.824-12.406 2.919-17.393 6.568-4.865 3.527-9.122 4.379-14.352 1.824 0.73-9.122 0.73-9.122-5.473-13.866-1.581 0.73-3.527 1.581-5.23 2.554-12.649 6.811-23.596 16.298-36.854 22.38-12.163 5.595-21.772 15.204-24.083 30.043-0.73 4.257-3.284 8.271-4.865 12.406-3.041 7.906-6.568 15.569-8.636 23.718-1.946 7.298-4.744 13.623-9.73 19.217-9.609 10.825-18.974 22.015-28.34 33.083-3.771 4.5-3.406 9.365-1.946 14.839 2.311 8.514 4.014 17.15 5.473 25.785 1.216 7.176 1.46 14.474 2.797 21.65 4.622 24.204 9.73 48.287 14.231 72.613 1.216 6.446 0.973 13.014 1.46 19.582-3.892-6.081-9.609-8.636-15.204-9.73-8.879-1.824-17.515-3.649-25.177-9.001-2.554-1.824-5.96-2.676-9.001-3.527-16.298-4.622-32.718-9.122-49.017-13.744-10.095-2.797-19.704-7.784-32.475-3.649 6.811-10.703 20.92-10.703 23.353-22.501-3.284-4.014-11.19-4.5-8.757-11.798 2.797-8.392-3.649-12.649-7.298-18.123-0.973-1.46-4.135-2.433-6.203-2.189-7.055 0.608-18.001 11.068-19.582 18.001-2.797 12.528-10.095 21.528-21.528 27.002-2.189 1.095-5.838 1.581-7.784 0.608-7.784-4.135-13.866-10.217-19.826-17.636 11.92-1.946 22.501-3.649 33.935-5.595-2.433-12.041 2.068-22.988-3.041-33.57-1.824 0.487-3.527 0.365-4.014 1.095-4.379 7.055-11.068 9.974-18.853 11.798-3.406 0.851-6.081 3.892-9.487 5.108-5.108 1.824-12.041 5.473-15.569 3.649-9.974-5.352-19.826-11.555-28.948-20.677 6.081-3.649 11.19-6.203 15.69-9.487 24.204-17.88 50.111-33.935 64.95-61.909 6.325-12.041 14.596-22.988 20.677-35.151 9.852-19.704 10.703-41.476 9.852-62.761-0.73-16.42-5.108-32.718-8.271-49.017-0.73-3.892-2.433-7.784-4.622-11.068-3.041-4.379-6.69-8.028-13.136-4.622-2.433 1.216-6.203 0.122-9.244-0.243-3.041-0.365-6.081-1.216-9.73-1.946-1.824 8.392-7.298 10.825-14.96 10.947-2.797-3.649-5.108-9.244-9.609-6.69-3.162 4.865-4.379 9.609-7.176 10.825-5.352 2.433-11.555 3.892-17.515 4.014-10.339 0.122-20.799-1.095-31.137-1.703-1.946-0.122-3.892-0.243-5.838-0.365 1.338-2.797 2.919-3.771 4.622-4.5 10.217-4.744 20.434-9.609 30.651-14.231 11.19-4.987 21.042-12.771 34.786-11.555 6.325 0.487 15.082 0.365 17.758-5.96-1.824-10.095-3.162-18.001-4.622-26.15-4.379 0.73-8.271 1.338-13.136 2.068 0.73-3.771 1.216-6.568 2.189-11.798-6.568 3.527-11.312 5.96-16.42 8.757 1.824 2.919 3.041 4.744 4.744 7.298-4.865-1.216-8.879-2.311-14.109-3.649 1.581-5.473 3.041-10.339 4.5-15.204 2.311-8.028 4.744-16.177 6.69-24.326 0.487-2.068-0.122-6.081-1.46-6.69-9.365-4.379-12.528-14.352-19.217-20.799-3.162-3.041-7.663-4.744-12.041-7.541-6.081 19.826-12.285 37.34-11.555 56.801 0.365 9.73-3.892 19.461-8.514 27.123-5.595-0.851-10.217-2.676-14.352-1.946-14.839 3.041-29.434 7.663-44.395 10.217-14.231 2.433-28.826 3.771-43.422 4.135-7.906 0.243-15.933-2.554-24.934-4.135-8.028-31.259-16.42-63.856-24.934-97.060-11.92 11.92-12.163 11.92-11.798 27.732 0.365 17.758 1.095 35.516 1.946 53.274 0.243 4.622 1.216 9.244-6.325 9.73-7.055-11.312-19.582-7.055-29.556-9.852-3.527 3.892-6.446 7.055-9.609 10.582 1.46 2.676 2.797 4.987 4.5 8.028-2.797 0.851-5.595 0.973-7.055 2.433-9.122 9.122-25.421 8.514-30.772 22.745-0.365 0.973-1.946 1.338-2.919 2.189-4.5 3.649-5.96 13.987-2.554 18.731 2.554 3.649 4.987 7.663 8.392 10.339 8.271 6.446 13.379 17.636 26.394 17.515 2.433 0 4.987 3.284 8.028 5.595-3.649 5.96-5.595 13.014-10.095 15.69-8.879 5.23-11.433 13.014-13.379 21.772-1.581 6.933-4.987 11.676-11.92 15.325-7.055 3.771-14.109 7.176-21.772 9.244-4.987 1.338-8.757 4.379-9.852 9.73-2.189 10.703-5.108 21.285-6.081 32.11-0.73 7.784-0.608 16.177 4.744 23.353 2.676 3.527 4.987 7.298 6.811 11.19 2.797 6.446 7.419 10.46 13.987 12.528 4.865 1.581 9.73 3.162 14.231 4.622 0 10.217-0.122 18.974 0 27.853 0.243 8.636-5.108 17.88 2.554 27.002 11.068-13.744 25.664-16.42 42.692-16.055 3.406 5.838 7.055 12.893 11.555 19.339 5.108 7.298 13.866 8.271 22.988 9.609-1.946 3.527-3.162 5.96-4.744 8.271-7.298 10.703-15.447 20.92-21.772 32.11-6.811 12.163-15.69 19.826-29.799 21.893-8.149 1.216-15.933 4.744-26.272 7.906 11.92 7.176 21.407-0.851 32.11 1.824-8.514 14.109-16.42 27.367-24.569 40.624-0.851 1.338-2.189 2.433-3.406 3.406-19.947 14.109-33.205 33.935-46.341 53.882-6.446 9.73-11.19 20.434-17.028 30.529-6.081 10.46-8.392 21.65-8.392 33.691 0 2.797-1.338 6.203-3.284 8.271-8.879 9.244-18.244 18.123-27.367 27.123-3.771 3.771-7.541 7.784-11.676 12.041 7.419 2.311 13.258 4.014 18.244 5.595 9.001-5.473 17.515-10.947 26.272-15.933 3.892-2.189 8.757-2.554 12.285-5.108 19.217-13.987 38.921-27.61 57.044-42.935 16.298-13.866 30.651-30.043 46.219-44.76 9.487-8.879 19.339-17.271 29.799-24.812 7.419-5.352 13.623-11.312 18.123-19.217 3.649-6.568 7.663-13.014 11.433-19.461 5.23 1.581 9.609 4.379 13.623 3.892 7.541-0.851 12.771 2.311 16.907 7.419 3.284 3.892 7.298 4.865 11.798 4.987 11.676 0.487 21.893 4.257 30.164 13.136-1.338 6.811-4.744 12.406-10.095 17.271-6.203 5.595-11.92 11.92-17.393 18.244-5.473 6.325-10.095 13.258-15.447 19.704-3.041 3.527-7.298 6.081-10.095 9.73-4.5 6.081-7.906 13.136-12.406 19.096-10.339 13.623-10.46 13.258-26.029 4.744-3.892-2.189-9.73-4.622-13.136-3.284-5.595 2.189-10.217 0.487-15.325 0.243-2.676-0.122-5.473-0.608-8.028-0.122-5.108 0.973-10.095 2.554-15.447 4.014 0.243 9.244 6.811 15.082 13.866 19.582 10.46 6.811 21.65 12.649 32.475 18.853 8.757 5.108 18.001 9.487 26.029 15.569 21.042 15.69 22.137 13.866 39.043-3.649 9.487-9.852 16.785-21.772 25.421-32.353 20.92-25.664 42.084-51.206 63.734-77.478 6.325 2.797 11.555 4.987 16.542 7.541 2.797 1.46 5.352 3.649 7.906 5.473 7.176 5.23 14.231 10.582 21.407 15.812 5.717 4.257 6.446 7.419 4.135 14.717-2.311 7.298-4.135 14.839-6.446 22.137-1.338 4.622-3.041 9.122-4.622 13.623-5.595 15.447-14.717 27.732-30.164 34.664-0.73 0.365-1.46 0.851-1.824 1.581-7.055 11.676-19.582 14.231-30.894 18.853-5.108 2.068-8.149 0.122-11.068-4.257-5.108-7.541-10.703-14.717-16.055-22.015-0.73 0.243-1.338 0.487-2.068 0.73 0 4.014 0 7.906 0 14.109-4.622-3.527-7.541-5.717-11.312-8.636-2.919 8.514-1.46 15.082 2.433 21.528 3.527 5.838 6.568 12.041 10.095 17.88 4.257 6.811 7.663 14.717 13.501 19.826 15.082 13.258 32.475 15.447 50.72 6.203 8.028-4.014 15.933-8.028 23.718-12.285 2.797-1.581 5.108-3.892 7.541-5.96 5.473-4.744 10.825-9.487 16.177-14.352 2.068-1.824 4.379-3.527 6.203-5.717 7.419-9.001 14.596-18.244 22.137-27.245 8.392-9.852 17.271-19.217 25.542-29.313 7.419-9.001 13.623-19.096 21.164-27.975 7.419-8.757 12.649-18.366 17.271-29.191-2.554-0.973-4.5-1.46-6.203-2.433-1.824-1.216-3.406-2.919-5.96-5.108 10.703-5.595 23.353-8.149 22.866-22.866 8.149 1.095 8.514 0.73 8.392-5.473-0.122-4.135-2.919-7.784 0.487-12.528 5.717-8.149 6.69-17.758 2.554-27.245-1.338-3.162-3.041-6.203-5.838-11.555 19.096 9.365 37.097 13.501 55.706 12.528 18.366-0.973 37.097 0 55.463-6.446 2.554 6.568 4.744 12.528 7.176 18.366 3.284 8.028 4.622 15.812 1.581 24.326-1.824 5.108 5.352 19.704 9.852 21.65 1.095 0.487 2.554 0.851 3.406 0.365 8.757-4.379 13.379 0.365 17.758 7.298 1.581 2.554 7.784 5.352 8.514 4.744 5.96-6.203 12.406-1.581 18.488-1.46 15.325 0.365 28.948-4.622 43.3-9.487 19.704-6.69 29.678-21.772 38.8-37.827 6.933-12.406 4.379-21.164-5.595-30.407 0.365-2.554 1.946-6.446 0.851-7.784-7.663-8.514-9.487-19.339-13.136-29.556-0.365-1.095-1.338-2.068-2.433-2.676-9.852-5.96-14.596-16.177-19.704-25.421-14.839-27.488-22.258-57.531-23.353-88.546-1.824-51.936 3.406-103.385 15.812-154.348-1.216-1.095-3.041-2.554-4.744-4.014 3.649-8.028 8.636-13.623 16.907-16.785 9.001-3.406 17.758-7.784 25.907-13.014 17.271-11.068 36.367-17.393 55.463-24.083 4.5-1.581 9.609-1.824 13.987-3.649 11.92-5.108 24.204-8.514 37.219-9.122 15.69-0.73 31.38-0.973 47.071-1.338 27.245-0.608 54.49-1.216 81.613-1.824 0.973 4.987 1.338 9.73 2.797 14.109 11.676 35.029 20.069 71.032 25.177 107.521 6.811 47.557 15.933 94.993 18.366 143.158 1.338 26.15 1.703 51.693-7.176 76.748-1.338 3.771-1.824 7.906-2.797 11.798-2.311 8.879-4.744 17.636-7.176 26.759-2.919 0-4.987 0-6.933 0-15.082 0.365-28.096-5.838-41.597-11.555-14.109-5.96-26.029-14.352-36.489-25.299-3.771-4.014-8.271-7.298-13.258-11.555 2.554-3.284 4.987-7.541 8.636-10.46 9.365-7.784 17.271-16.42 23.961-26.88 6.568-10.339 15.082-20.069 30.043-19.096 7.055 0.487 10.217-4.5 9.609-12.041-0.122-2.311-0.122-4.622 0.122-6.933 1.581-12.649 3.649-25.299-2.433-37.462-0.73-1.46-0.851-3.162-1.216-4.744-5.717-21.285-21.164-34.786-42.814-36.489-5.473-0.487-11.312 0.487-16.785 1.581-7.419 1.46-14.109 0.487-21.407-3.162 1.581-3.041 2.554-5.717 4.257-7.784 4.987-5.717 10.339-11.19 15.69-16.663 1.095-1.095 2.554-2.068 4.014-2.676 11.433-5.473 16.542-14.474 16.177-27.732-3.892-0.608-7.419-0.973-10.947-1.824-1.824-0.365-4.987-1.216-5.23-2.311-2.554-11.19-13.014-10.582-20.677-14.352-4.379-2.189-7.784-1.216-11.312 1.216-7.298 4.987-15.325 9.365-21.65 15.447-6.69 6.325-13.623 7.663-22.137 6.568-7.541-0.973-15.082-0.973-21.893 4.257-3.284 2.554-8.757 4.379-12.528 3.527-9.365-2.068-17.393 2.068-25.907 3.527-13.987 2.311-27.245 7.419-39.773 14.231-4.135 2.311-5.717 5.595-2.189 10.947 16.542-2.919 32.962-8.514 50.233-9.609 17.393-1.216 34.664-5.838 54.49-2.676-11.798 16.298-23.475 30.529-33.083 45.976-9.852 15.812-17.758 32.962-27.123 50.355 13.987 4.865 11.312 15.569 11.555 25.177-3.406 3.649-11.312 3.406-8.879 11.19 2.068 6.446 5.108 12.163 12.163 13.987 5.108 1.338 10.339 2.676 15.447 2.676 12.163 0 19.096 7.419 25.177 16.298 2.068 2.797 3.284 5.96 4.622 8.879zM843.502 192.053c8.514 4.014 15.447-0.973 22.745-3.771 5.23-1.946 10.703-4.135 16.177-4.865 13.987-1.946 27.488-5.595 40.746-10.582 1.703-0.608 3.771-0.365 8.879-0.851-5.96 6.69-10.095 11.312-14.474 16.177-3.892-2.189-6.811-3.892-9.487-5.473-1.216 0.851-2.433 1.095-2.554 1.703-1.095 5.23-3.649 7.906-9.122 9.609-8.757 2.676-17.028 7.176-25.421 10.825-1.095 0.487-2.433 1.095-3.406 0.851-8.149-1.703-13.987 1.824-18.731 9.001-7.055-5.23-9.487-11.92-11.068-20.434 2.797-1.216 4.744-2.676 5.717-2.189zM795.944 224.893c-5.352-2.189-11.555-2.189-17.758-3.162-6.446-4.5-13.501-9.487-20.799-14.474 4.987-17.515 12.163-22.623 29.799-20.92 3.892 0.365 7.906 0 13.379 0 1.946 8.028 3.406 15.447 5.595 22.745 2.068 7.055 4.865 13.987 7.663 21.772-8.149 0.73-12.528-3.771-17.88-5.96zM807.256 320.981c-0.73-11.433-1.581-20.92-1.824-30.407-0.365-13.987 9.974-20.434 20.191-26.272 16.785-9.73 33.691-18.974 50.72-28.096 5.96-3.284 12.406-5.717 18.609-8.392 8.028-3.527 15.933-7.419 24.204-10.217 10.703-3.527 21.65-6.325 32.475-9.244 21.407-5.838 42.814-11.92 64.342-17.028 11.312-2.676 23.11-3.649 34.664-5.108 5.473-0.73 8.392 2.189 9.122 7.298 2.311 16.177 4.379 32.718-2.189 47.922-4.622 10.947-12.893 20.312-19.826 30.164-3.892 5.473-8.636 10.46-12.771 15.933-3.649 4.744-7.298 8.757-14.839 5.108 5.108-9.974 3.041-14.109-7.055-12.649-14.231 2.068-27.61-0.608-41.232-4.257-13.501-3.649-27.61-5.595-41.597-6.811-6.081-0.487-12.528 2.433-18.609 4.622-1.581 0.608-2.676 3.771-3.284 5.838-1.216 4.987-4.135 7.055-8.757 4.744-5.473-2.797-8.149 0.487-11.19 3.892-6.081 6.811-11.555 8.271-19.704 4.744-5.352-2.311-8.879 0.73-11.312 3.892-5.352 6.69-11.92 10.46-20.069 12.528-2.554 0.608-4.622 3.041-7.055 4.5-3.649 2.068-7.419 4.135-13.014 7.298zM831.704 363.794c8.757-14.839-9.365-16.907-12.649-26.637 7.541-10.46 19.704-10.095 30.164-13.136 16.663-4.865 33.935-6.69 51.084-7.663 13.501-0.851 27.245 1.338 40.989 2.433 4.379 0.365 8.757 1.703 13.014 2.797 9.001 2.189 11.19 8.757 4.744 15.812-3.649 4.135-8.028 8.028-12.893 10.582-13.501 7.055-27.488 13.258-41.354 19.704-1.703 0.851-5.108 1.46-5.717 0.608-5.595-7.541-12.528-1.216-18.731-2.068-3.771-0.487-7.784 0.608-11.676 1.095-2.311 0.243-4.744 0.122-6.69 1.216-12.771 6.811-17.88 6.325-30.286-4.744zM959.536 422.906c-33.327 11.433-64.099 21.893-94.871 32.475-0.608-0.608-1.338-1.216-1.946-1.824 6.568-15.812 13.258-31.745 19.582-46.949 16.055-2.554 31.38-5.108 46.706-7.176 3.162-0.365 7.663 0.243 9.852 2.189 6.568 5.838 12.406 12.649 20.677 21.285zM980.7 488.221c-7.663-1.216-16.177-2.676-24.691-4.014-12.285-2.068-24.569-4.5-36.975-6.081-10.825-1.338-21.772-1.703-32.597-2.433-6.446-0.365-11.19 2.189-16.055 6.568-4.744 4.135-4.987 7.541-1.095 13.501-10.217 0.122-13.379 14.717-24.448 7.055-1.824-5.96 4.014-10.46 4.987-16.177 2.433-13.136 12.041-16.663 22.745-19.826 21.285-6.325 42.327-12.893 63.369-19.826 9.122-3.041 17.88-6.811 26.88-10.46 5.473-2.189 9.73-1.703 13.987 3.041 7.906 8.636 16.42 16.542 25.664 25.785-7.419 7.906-14.474 15.325-21.772 22.866zM1085.301 399.432c0.487 2.433 1.095 4.135 0.73 4.5-1.824 1.703-4.014 3.041-6.081 4.5-0.608-0.851-1.216-1.824-1.946-2.676 2.189-1.824 4.257-3.771 7.298-6.325zM1084.45 463.652c-3.284-0.487-6.446-0.973-11.068-1.703 2.189-3.162 3.406-4.987 5.473-8.028 2.676 2.919 4.744 5.23 6.933 7.663-0.487 0.608-0.851 1.338-1.338 2.068zM1211.066 370.484c-0.973-0.122-1.946-0.243-3.041-0.487 0.973-10.947-7.298-23.231 7.784-33.57-1.703 12.406-3.162 23.231-4.744 34.056zM1472.813 435.556c4.379-6.203 8.028-13.136 13.379-18.366 14.96-14.717 31.38-26.637 54.49-23.231 1.581 3.771 2.919 7.055 4.622 11.068 5.595 0 11.555 0 17.636 0 2.797 5.352 4.014 9.244-0.243 14.352-5.717 6.933-11.19 13.987-13.379 23.596-1.703 7.298-8.636 13.379-13.501 19.826-1.338 1.703-4.257 3.771-5.96 3.406-8.149-1.581-10.582 3.892-12.163 8.636-9.974-0.608-18.001-1.216-28.218-1.824-0.973-2.068-2.433-6.203-4.744-9.73-3.284-4.987-6.568-9.974-10.825-14.109-5.96-5.96-6.446-6.325-1.095-13.623z" p-id="52772" fill="#bfbfbf"></path><path d="M2368.616 600.242c-11.19-8.028-22.745-16.177-33.327-24.691-26.759-21.407-51.814-45.003-77.478-67.748-4.5-4.014-8.757-8.392-13.379-12.406-6.081-5.23-12.528-8.514-21.042-5.473-7.176 2.554-13.258 0.243-18.731-5.108-6.081-5.96-12.771-11.312-19.217-16.785-5.473-4.622-11.312-8.149-18.244-2.311-5.96-6.081-9.001-15.569-18.974-11.676-6.568-5.838-8.514-16.542-19.947-14.109-0.243 0.122-0.973-1.095-1.338-1.703-3.527-6.325-8.757-6.811-15.204-4.865-7.055 2.189-13.623 4.257-18.123 10.825-3.162 4.622-6.811 9.365-13.866 7.419 9.244-22.38 17.393-45.125 21.528-69.207 0.73-4.014 1.581-7.906 2.189-11.92 0.851-4.622 3.406-7.055 8.149-7.419 6.446-0.487 12.893-1.46 19.339-1.703 16.663-0.73 32.962-2.554 47.679-11.19 6.325-3.649 12.649-7.541 19.461-9.974 9.244-3.284 15.082-9.609 18.488-18.123 4.257-10.825 9.974-23.11 4.622-33.813-6.325-12.771-6.325-28.096-17.271-38.921-3.771-3.771-5.838-9.487-4.865-16.542 0.487-3.649-7.055-8.271-10.703-12.771-1.216-1.46-1.46-3.771-1.824-5.717-0.851-4.135-0.487-8.879-2.433-12.285-2.068-3.527-6.69-5.473-9.73-8.636-1.946-1.946-3.284-4.622-4.5-7.176-8.392-18.001-17.028-35.881-25.056-54.004-2.433-5.473-3.406-11.555-5.473-18.974-3.771-2.311-9.974-4.865-9.487-13.136 0.122-1.338-2.311-3.041-3.771-4.257-2.068-1.703-5.23-2.797-6.568-4.865-6.446-9.609-16.177-8.271-24.083-5.23-20.677 7.784-37.705 21.042-50.233 39.408-9.122 13.379-14.717 28.218-18.366 44.395-6.69 28.948-10.339 58.139-13.379 87.573-3.162 30.286-7.176 60.328-16.42 89.398-1.338 4.014-3.162 9.001-6.446 11.068-12.041 7.906-24.812 14.96-38.557 22.988-2.554-9.001-4.987-17.758-7.541-26.394-3.892-13.501-9.487-25.785-22.015-33.813-12.041-7.663-18.853-19.704-19.582-33.448-0.608-10.46-6.568-15.933-13.379-24.569-0.487 4.5-1.216 6.933-0.851 9.001 4.257 22.623-2.797 44.76-2.797 67.261 0 11.92 0.122 23.839-0.73 35.637-1.46 18.731 4.5 37.34 0.851 56.193-0.973 4.987 1.46 10.582 2.676 17.636-2.919 6.081-2.919 6.081-2.797 13.987 6.69-5.595 11.798-11.676 18.366-14.96 6.568-3.284 14.474-4.014 20.677-5.473 6.446 6.203 11.433 12.406 17.636 16.42 5.838 3.771 13.258 5.23 21.042 8.149-4.257 8.271-5.595 15.204 4.014 19.339 2.554-1.946 5.23-4.135 10.217-7.906-0.851 6.203-1.338 9.974-1.946 13.744-1.703 9.852-4.5 19.704-4.744 29.556-0.608 21.042-11.19 35.637-27.732 46.949-4.014 2.797-8.392 4.865-12.528 7.298-16.055 9.487-32.475 16.542-51.328 8.879-8.392-3.406-17.758-3.527-24.569 0.243-6.933 3.771-12.163 1.581-19.582 1.338-2.068-12.406-4.135-24.691-6.325-36.975-4.865-27.488-8.757-54.977-9.609-82.951-1.095-31.137-3.527-62.153-4.744-93.168-0.608-15.69-2.189-31.624 4.257-46.827 5.473-13.014 10.339-26.394 15.933-39.408 13.744-31.989 26.272-64.464 42.084-95.358 8.514-16.663 21.407-31.259 38.313-41.476 7.176-4.257 13.136-9.244 15.204-19.096 1.338-6.203-0.122-8.028-3.892-10.095-6.933-4.014-14.474-7.176-21.407-11.312-8.879-5.23-18.123-5.23-26.637-0.73-11.798 6.203-23.839 12.649-33.813 21.164-13.014 11.068-25.664 23.231-35.637 36.975-13.258 18.123-27.245 35.637-37.34 56.436-8.271 17.028-15.69 34.543-24.448 51.449-4.987 9.73-9.609 19.582-13.744 29.678-6.081 14.474-11.555 29.191-17.271 43.908-9.001 22.866-18.001 45.733-26.88 68.599-1.338 3.527-1.946 7.419-2.919 11.19 0.73 0.487 1.46 0.973 2.189 1.46 4.014-3.649 7.784-7.541 11.92-11.068 2.311-1.946 4.987-4.257 7.784-4.744 4.865-0.73 9.852-0.243 14.96-0.243-6.325 11.676-6.446 11.798 3.771 19.217 3.527 2.554 4.622 5.108 3.771 9.244-1.095 4.744-1.703 9.487-2.433 14.352-1.216 7.419 3.649 11.19 9.122 14.231 5.352 3.041 9.244 0.608 13.987-3.041 8.757-6.69 14.96-14.474 17.271-25.299 1.946-9.487 6.446-16.663 17.15-18.609 0.365 2.068 0.851 4.014 0.851 6.081-0.243 23.596 3.406 46.827 7.176 69.937 3.162 19.582 6.69 39.043 9.365 58.625 2.311 16.785 3.406 33.813 5.595 50.598 0.608 4.622 2.797 9.244 4.987 13.623 0.851 1.824 3.527 3.649 5.473 3.892 4.865 0.608 9.852 0.122 14.474 0.122 9.244-6.69 3.041-16.907 5.595-27.002 14.109 15.69 31.137 22.988 48.895 29.069 18.731 6.446 38.192 8.271 57.531 4.987 37.705-6.446 69.086-24.326 93.047-54.49 13.501-16.785 25.421-34.421 31.38-55.585 0.487-1.703 2.068-3.162 3.771-5.595 2.189 2.311 4.379 3.771 5.108 5.717 8.028 21.407 19.826 40.503 35.151 57.288 11.92 13.014 23.475 26.759 40.259 34.178 5.838 2.554 7.176 2.068 8.271-4.622 0.243-1.338 0.73-2.676 1.338-4.865 3.649 2.068 6.325 3.771 9.244 4.987 8.514 3.649 16.785 8.879 25.664 10.217 18.609 2.797 36.854 0.122 54.49-7.055 9.609-3.892 19.582-7.663 30.043-1.095 2.554 1.581 6.325 1.095 9.365 1.946 3.771 1.095 8.028 1.946 11.19 4.257 11.798 8.392 22.988 17.636 34.908 25.785 6.568 4.5 13.987 7.906 21.407 11.068 6.568 2.676 12.285-2.554 18.488-3.406 7.906-1.095 9.487-5.717 10.703-12.285 3.406-19.096-9.244-30.772-21.164-39.286zM2112.22 317.21c5.595-43.179 3.041-86.479 3.162-129.779 0-15.082-0.851-30.164-1.581-45.246-0.365-8.392 3.162-13.866 11.798-17.028 17.15 18.974 27.002 41.232 36.611 63.491 13.744 31.502 27.488 63.004 40.746 94.628 3.406 8.149 5.838 16.785 7.541 25.542 3.771 19.096-13.744 34.178-32.232 27.975-7.176-2.433-13.866-2.554-21.285-0.243-4.379 1.338-11.676 0.608-14.474-2.311-7.663-7.784-15.69-9.122-25.421-6.203-1.095 0.365-2.311-0.243-4.987-0.487 0-3.406-0.365-6.933 0.122-10.339zM2077.678 461.585c0.973-4.379 1.581-7.055 2.189-9.73 0.608 2.919 4.257 6.081-2.189 9.73z" p-id="52773" fill="#bfbfbf"></path><path d="M340.198 429.474c11.676-11.068 22.745-22.745 33.205-34.908 15.569-18.001 31.016-36.124 45.489-55.098 13.379-17.636 24.812-36.732 38.070-54.368 6.446-8.636 15.082-15.69 23.11-22.988 2.797-2.554 6.811-3.527 12.285-6.203 0.73 5.352 1.338 8.636 1.581 12.041 1.46 25.421 2.919 50.841 4.257 76.262 0.608 11.19 2.554 22.501-1.824 33.57-2.311 5.595-4.379 11.312-6.568 16.907-3.284 8.757-0.243 15.569 7.906 19.826 5.96 3.162 11.555 7.298 17.15 11.068 4.257 2.919 8.271 6.081 12.649 9.365 0.973 8.392 0.973 8.392 7.298 14.96 0.851-0.73 1.946-1.338 2.433-2.311 4.622-8.879 4.5-10.217 18.609-7.906 9.487 1.581 19.339 2.919 28.826 2.068 11.555-0.973 22.623-3.771 32.597-11.555 5.838-4.5 4.379-11.068 8.392-15.325 3.284-3.406 3.162-6.811 2.189-11.068-10.217-43.908-12.528-88.911-17.271-133.549-0.973-9.609-2.189-19.217-2.797-28.826-1.338-19.704-4.379-39.408 0-59.112 0.487-2.433-0.122-5.717-1.338-8.028-5.473-10.339-14.717-13.379-26.515-9.001-4.379-5.352-9.244-7.176-16.663-4.257-4.622 1.824-10.825-0.365-16.298-1.216-2.676-0.365-5.108-2.919-7.784-2.919-16.542-0.122-32.962 0.851-49.503 0.243-11.19-0.365-22.745-1.46-33.327-4.744-16.42-4.987-17.15-5.595-27.488 7.419-0.365 0.487-1.46 0.608-1.581 0.73-13.136-1.095-24.812-7.784-39.286-7.298 3.771 10.217 2.189 17.636-8.149 22.258 2.311 3.771 3.771 6.933 5.96 9.609 5.23 6.568 12.285 12.285 15.933 19.582 7.055 14.231 18.974 21.407 32.597 27.002 11.798 4.865 23.839 9.244 38.313 14.839-24.812 21.893-41.597 46.706-58.869 71.153-12.163 17.15-24.691 34.056-37.827 50.598-8.392 10.582-17.88 20.434-27.61 29.921-7.906 7.784-16.663 14.839-25.421 21.772-3.771 2.919-8.392 5.595-12.893 6.325-9.122 1.581-17.271 8.028-27.61 4.5-3.162-1.095-7.906 2.554-11.555 3.892-6.203-6.325-2.311-13.136-3.041-19.339-3.892-34.543-7.419-69.086-11.312-103.628-1.338-11.798 0.487-15.569 11.676-18.853 7.663-2.311 15.447-3.649 23.231-5.473 8.271 11.19 14.231 13.501 24.448 9.609 7.541-2.919 11.312-12.771 10.095-23.961-1.703-14.231-11.068-23.231-21.772-30.407-11.433-7.663-25.664-8.271-38.8-8.271-6.325 0-12.285-0.122-18.244-1.338-0.365-1.703-0.973-2.797-0.973-4.014 0-1.581 0.122-3.284 0.608-4.744 4.865-17.15 4.257-34.543 1.095-51.814-4.014-21.772-3.771-44.273-13.866-64.95-4.744-9.73-9.001-15.204-18.488-14.352-9.609 0.851-17.15-2.189-24.934-7.176-6.568-4.135-14.109-6.568-21.042-9.73-2.068 6.081-2.797 11.676-5.595 15.569-6.811 9.244-6.446 13.136 3.649 18.123 8.879 4.379 10.339 6.568 9.609 15.933-1.46 18.001-3.284 35.881-4.622 53.882-0.487 6.446-0.365 13.014-0.243 19.461 0.122 4.5 2.433 8.636 7.298 7.784 5.717-0.973 7.906 1.581 10.339 5.595 2.433 4.135 6.325 7.541 7.906 11.798 2.433 6.203 3.162 13.014 4.987 19.582 3.406 11.92 2.189 15.325-9.487 19.339-5.595 1.946-10.217 4.379-13.623 9.244-1.581 2.189-4.257 3.649-6.69 5.23-13.258 9.122-26.515 18.488-40.016 27.367-6.446 4.257-13.623 9.609-21.285 6.69-6.811-2.554-12.406-0.365-18.731 1.095-3.284-4.379-6.325-8.514-9.609-13.014-3.771 1.946-6.811 4.014-10.095 5.23-3.284 1.216-6.811 1.581-10.095 2.189-3.162-9.365-5.473-9.73-12.285-5.108-5.96 4.014-6.325 10.217-6.69 15.69-0.608 8.271-3.406 15.204-7.055 22.501-4.379 9.001-12.163 18.609-3.527 29.556 0.365 0.487 0.243 1.703 0 2.311-2.554 6.325 2.554 9.73 5.473 13.744 3.649 4.744 7.419 9.609 11.676 13.623 15.69 14.717 32.962 26.759 56.071 22.258 20.069-3.892 38.921-11.92 55.706-23.353 13.258-9.001 25.907-18.731 40.503-25.664 5.838-2.797 10.095-8.636 16.298-14.231 2.189 5.473 4.987 9.974 5.717 14.839 2.919 22.38 5.473 44.76 7.784 67.261 0.973 9.244-0.487 11.312-9.122 14.717-14.717 5.717-29.434 11.555-44.395 16.42-30.407 9.852-60.45 10.217-89.641-4.987-2.068-1.095-4.5-1.46-4.622-1.46-5.717 3.041-9.487 5.838-13.744 7.176-4.865 1.581-6.568 4.135-5.473 9.001 0.487 2.189 0.73 4.5 1.338 8.271-5.838-2.554-7.419 5.838-13.623 2.311-5.838-3.406-9.852-1.581-11.798 4.5-2.311 6.69-2.676 13.501 0.973 20.069 3.649 6.568 1.824 12.893-0.608 19.461-2.797 7.055-4.865 14.231-6.933 20.312 5.352 6.568 9.609 11.676 14.839 18.244 2.189-4.987 3.771-9.487 5.96-13.623 1.216-2.311 3.406-5.473 5.352-5.717 7.055-0.608 13.987-2.433 20.799 2.919 13.258 10.339 28.705 17.028 45.246 19.826 14.352 2.433 25.664 9.73 35.759 19.096 8.636 7.906 16.542 16.663 24.812 24.934 4.257 4.257 8.271 9.001 13.258 12.406 3.406 2.311 8.757 4.622 12.041 3.527 7.541-2.311 16.42-5.23 21.042-10.825 8.879-10.703 18.974-21.407 22.623-35.516 1.703-6.568 2.919-13.379 3.892-20.191 2.797-18.001 6.69-35.881 7.419-54.004 0.365-9.974 4.379-15.569 10.947-21.285 10.947-9.487 22.015-18.974 32.232-29.313 5.352-5.352 10.339-11.798 13.136-18.731 3.406-7.906 9.365-12.893 15.569-18.853zM223.434 565.699c-1.946 5.96-4.135 12.041-4.987 18.244-1.46 10.46-8.028 14.839-17.636 10.825-5.352-2.189-10.217-6.933-14.96-14.717 15.69-4.379 28.461-13.501 38.678-26.272 0.973 0.851 1.946 1.703 3.041 2.554-1.46 3.041-3.041 6.081-4.135 9.365z" p-id="52774" fill="#bfbfbf"></path><path d="M631.379 482.626c1.216-5.96 0.851-12.163 1.338-19.704-0.851-1.581-3.406-4.5-4.135-7.784-1.824-8.636-2.433-9.487-10.095-7.784-8.149 1.824-15.933 2.554-24.569 0.243-5.838-1.581-13.258 1.338-19.461 3.649-3.041 1.095-4.987 5.352-7.419 8.271-7.906-1.703-15.204-0.973-20.92 5.96-1.095 1.338-3.162 1.946-4.865 2.433-15.082 3.406-30.164 6.811-45.854 10.217-4.014-11.798-12.041-4.622-19.461-4.379 1.095 3.041 1.824 5.352 3.162 9.001-8.149 0-14.96-0.122-21.772 0-2.676 0-5.717-0.365-7.906 0.851-7.784 4.135-15.447 4.257-21.164 0.608-5.838 2.068-10.46 5.23-14.352 4.622-3.892-0.73-5.838 0.243-8.514 2.068-2.676 1.946-5.717 3.527-10.217 6.203-2.554-11.676-5.23-21.407-6.568-31.259-1.338-9.974-2.554-12.771-12.406-14.717-8.149-1.581-14.109-4.622-18.001-12.406-3.284-6.69-9.244-7.176-14.96-2.554-1.824 1.46-4.257 3.284-4.744 5.352-2.676 11.19-6.203 22.501-6.933 33.935-0.973 15.204 0 30.529 0.73 45.733 0.487 10.217 0.73 20.677 3.041 30.651 3.284 14.352 8.392 28.34 12.406 42.57 2.311 8.149 6.446 14.717 13.866 18.731 4.987-1.216 9.609-2.554 14.352-3.527 8.757-1.946 8.514-1.703 13.258 6.933 2.676 4.865 6.933 9.001 9.852 13.744 4.5 7.419 12.285 9.365 19.582 10.947 9.974 2.068 19.582-9.609 14.717-18.488-2.797-5.23 2.797-7.176 1.216-10.703-6.081-6.325-6.081-6.325-4.135-9.122 6.203 3.527 12.285 7.055 18.244 10.582 2.068 1.216 4.014 2.797 6.081 4.014 5.352 3.406 10.947 6.568 16.298 10.217 8.514 5.838 16.785 12.041 24.204 17.393-1.095 12.163-7.419 21.164-3.649 32.718 5.23-6.933 10.339-13.866 16.785-22.501 5.108 2.311 9.73 4.622 14.474 6.69 9.73 4.014 19.217 8.636 29.191 11.798 13.258 4.135 26.637-3.892 30.651-17.271 3.892-12.771 7.541-25.664 11.555-38.313 8.149-25.785 17.15-51.328 24.569-77.478 5.23-19.217 8.636-38.8 12.528-58.139zM504.398 615.446c-7.541-4.865-14.839-9.609-22.015-14.231-11.068 4.622-21.772 4.257-32.597-0.243-4.379-1.824-9.122-3.527-13.744-4.379-7.784-1.46-11.433-5.717-15.447-13.014-8.149-15.204-13.379-31.016-17.515-47.436-1.824-7.298-3.041-14.839-4.744-23.596 10.703-1.703 20.069-3.406 29.434-4.622 9.487-1.216 19.096-2.311 28.705-3.162 20.069-1.824 40.138-3.162 60.085-5.108 6.325-0.608 12.649-2.433 18.974-3.527 5.108-0.851 10.217-1.581 16.785-2.554-16.177 41.354-31.745 80.884-47.922 121.873z" p-id="52775" fill="#bfbfbf"></path><path d="M994.809 854.935c-6.568-3.284-13.014-6.69-19.582-9.73-8.879-4.135-13.258-2.433-20.069 4.865-4.865 5.108-10.703 10.095-17.15 12.893-6.325 2.676-9.852 6.325-11.92 12.528-2.554 7.663-7.419 13.258-15.204 16.298-16.907 6.811-33.57 13.866-50.476 20.799-0.973 0.365-2.311-0.243-4.014-0.487 0-2.433-0.73-4.987 0.122-6.933 4.257-9.122 8.149-18.488 13.623-26.88 6.811-10.46 16.663-16.542 30.043-13.744 1.581 0.365 3.406 0.73 4.865 0.243 2.797-1.095 6.69-2.068 7.784-4.379 1.095-2.311 0.365-6.568-1.216-8.879-5.838-8.271-26.272-18.366-40.503-12.163-13.623 5.838-23.839 14.96-31.016 27.61-3.284 5.838-6.811 11.555-9.974 16.785-12.406-2.554-20.069-9.365-26.759-17.758-2.797-3.406-5.96-6.69-9.609-9.244-6.203-4.379-10.703-3.284-15.69 2.433-2.311 2.676-5.352 4.865-7.663 7.663-5.352 6.568-11.555 12.649-15.325 20.069-3.892 7.541-6.933 15.204-15.082 20.069 7.663 11.19-2.311 21.042-0.365 31.137 3.284 2.554 6.568 5.108 8.271 8.514 5.717 11.92 9.73 14.717 22.988 12.041 11.433-2.433 22.745-5.96 33.813-9.73 3.406-1.095 6.081-4.257 9.001-6.568-3.284-2.433-5.595-3.162-7.784-2.676-8.392 1.703-16.542 3.892-24.934 5.473-5.108 0.973-10.46 1.46-15.569 1.095-5.473-0.487-8.514-4.744-9.487-9.852-0.973-5.352 3.406-6.69 7.176-8.149 4.5-1.824 9.244-3.284 13.379-5.595 15.69-8.879 34.178-13.014 45.611-28.705 0.243-0.365 1.46 0 2.311 0 0.608 0.608 1.703 1.216 1.581 1.581-1.824 10.825 1.095 20.434 6.446 29.678 0.608 0.973 0.365 2.433 0.608 3.527 2.797 12.893 9.244 17.88 22.38 16.542 4.014-0.365 8.149-1.095 11.798-2.676 16.663-7.419 33.327-14.839 49.625-22.866 8.757-4.257 8.636-4.622 14.474 3.406 8.514 11.798 21.528 14.839 33.935 7.419 14.96-9.001 26.88-21.285 33.57-37.34 3.162-7.541 3.649-16.42 4.379-24.812 0.73-6.081-2.797-10.703-8.392-13.501zM764.929 891.91c0.73-11.676 9.244-17.028 22.745-13.623-6.325 8.392-13.866 11.92-22.745 13.623zM972.916 874.76c-4.135 9.73-9.487 18.731-18.609 24.934-0.851 0.608-2.189 0.243-3.771 0.365-1.946-5.473 1.824-8.636 4.5-11.798 4.622-5.595 6.69-11.068-0.243-18.731 5.23-1.216 8.879-2.797 12.528-2.797 5.23 0 7.541 3.284 5.595 8.028z" p-id="52776" fill="#bfbfbf"></path><path d="M698.033 884.369c-3.284-0.122-6.446-1.703-9.73-2.554 1.338-3.162 2.189-6.69 4.257-9.244 3.284-4.135 7.419-7.419 11.068-11.312 1.703-1.824 2.919-4.014 4.257-5.96-18.488 13.866-37.097 26.029-60.085 33.205-0.851-4.379-1.824-7.419-1.824-10.46-0.122-9.73-0.122-19.461 0.365-29.191 0.243-6.446 1.095-12.893 2.068-19.339 0.608-4.135 2.554-7.663 7.541-8.271 9.974-1.338 19.947-3.041 30.043-3.771 20.434-1.703 25.664 1.703 34.421 23.231 1.824-5.108 4.135-8.271 3.284-9.852-4.014-7.784-7.541-16.785-13.866-22.137-5.473-4.622-12.771-9.73-22.015-7.663-12.649 2.797-26.15 3.527-38.192-1.095-10.217-3.892-18.123-7.176-29.799-2.433-10.947 4.5-16.298 8.514-14.352 20.799 0.487 3.162 0.365 6.446 0.122 9.609-2.189 46.827 5.717 92.803 13.014 138.779 0.487 2.797 2.554 6.69 4.865 7.419 5.352 1.824 7.298 5.838 9.487 10.217 1.46 2.797 3.162 5.717 5.352 8.028 6.325 6.446 12.771 4.987 15.569-3.406 1.095-3.406 1.946-7.176 1.824-10.703-0.487-10.825-1.338-21.772-2.554-32.597-0.851-8.028-2.554-15.933-3.771-23.961-0.608-4.257-0.243-8.392 3.892-10.582 13.987-7.541 28.461-13.866 45.003-12.163 17.393 1.824 26.88 18.123 19.217 33.813-2.797 5.717-7.176 10.703-11.555 15.325-7.298 7.784-17.15 11.798-26.272 16.907-4.257 2.311-7.784 6.69-10.582 10.947-2.554 3.892 0 7.298 4.257 8.028 2.554 0.487 5.717-0.122 8.149-1.338 27.123-14.231 45.489-34.664 46.706-67.018 0.487-13.987-16.055-30.772-30.164-31.259zM618.973 830.609c-0.973 0-2.068-0.122-3.041-0.122 0-3.162 0-6.325 0-9.487 1.216 0 2.433 0.122 3.771 0.122-0.243 3.162-0.487 6.325-0.73 9.487z" p-id="52777" fill="#bfbfbf"></path><path d="M1214.229 880.112c7.784-6.446 7.541-14.109 3.649-22.988-3.649-8.271-6.933-15.812-18.123-13.623-1.824 0.365-4.135-0.243-5.96-0.851-10.825-3.771-19.947 1.095-28.218 6.811-7.176 4.987-12.893 11.92-19.704 17.515-5.108 4.379-10.825 8.028-17.758 13.136-1.581-4.744-2.554-8.392-3.892-12.041-1.216-3.284-1.946-7.419-4.257-9.73-6.325-5.96-13.501-11.19-20.92-17.15-16.055 7.055-25.542 22.258-38.678 37.097-0.73-8.392-0.608-13.501-1.581-18.609-2.068-10.217-9.244-13.866-17.515-8.271-6.568 4.5-13.014 6.811-19.826 5.23-3.041 13.014-7.176 24.934-8.514 37.097-1.338 11.92-0.243 24.204 0.365 36.246 0.243 4.744 2.189 9.487 9.609 9.609 0.365-3.406 0.73-6.446 0.851-9.487 0.487-13.379 1.216-26.759 1.216-40.016 0.122-13.501 8.514-22.38 16.785-31.259 4.622-4.865 8.879-3.649 10.703 3.041 1.824 6.568 2.554 13.501 2.676 20.312 0.365 10.947-0.365 21.893-0.365 32.84 0 2.433 1.338 4.865 2.311 8.028 6.081-4.622 4.987-10.217 5.108-15.204 0.487-16.907 5.96-31.745 18.366-43.543 1.946-1.946 4.987-2.797 7.419-4.135 0.73 0.608 1.46 1.216 2.189 1.824-1.216 4.865-3.284 9.609-3.649 14.474-0.973 12.406-1.581 24.934-1.338 37.462 0 2.797 3.162 6.325 5.717 8.149 3.527 2.433 6.203 4.379 6.446 9.244 0.487 9.244 4.379 13.136 13.623 15.325 7.663 1.703 11.555-0.365 16.298-9.122 0.973-1.824 1.824-3.649 2.554-5.473 4.379-9.852 4.5-9.974 14.231-7.176 15.447 4.5 31.137 5.838 46.949 3.649 6.69-0.851 13.501-2.919 19.826-5.473 6.69-2.797 7.419-9.974 1.824-14.596-2.797-2.189-6.203-3.892-9.73-4.987-4.744-1.581-9.852-2.311-17.758-4.135 6.203-3.527 9.974-5.473 13.501-7.906 5.473-3.406 10.703-7.176 15.569-11.312zM1150.373 896.775c-3.527-5.23-0.73-8.757 1.581-11.798 7.298-9.73 16.298-17.88 27.245-23.596 7.784-4.135 15.812-5.473 24.448 2.433-2.433 2.919-3.649 5.352-5.595 6.325-15.812 9.001-31.745 17.758-47.679 26.637z" p-id="52778" fill="#bfbfbf"></path><path d="M1795.254 858.584c-10.703-2.068-21.65-2.797-32.475-4.135-3.041-0.365-6.081-0.73-12.406-1.581 4.379-6.568 7.298-10.703 10.095-14.96 2.189-3.406 5.23-6.568 5.96-10.339 0.608-2.919-0.73-7.419-2.797-9.365-3.041-2.919-7.055-1.095-9.365 2.189-4.257 6.325-10.095 8.879-17.393 9.487-2.311 0.243-4.744 1.216-6.811 2.311-5.23 2.676-9.487 1.095-13.136-2.797-5.595-5.96-10.825-12.163-20.555-8.392-1.824 0.73-4.744-0.851-6.933-1.824-7.419-3.284-13.379-1.095-18.366 4.865-3.041 3.771-6.69 7.298-8.636 11.676-5.473 11.92-10.339 24.204-14.96 35.394 3.527 5.108 6.325 9.122 8.879 13.136 7.906 12.649 23.353 17.88 37.097 12.285 2.068-0.851 3.527-3.284 7.176-6.933-9.001-1.216-15.569-1.095-21.407-3.041-6.081-1.946-11.19-6.203-13.987-13.258 2.068-1.46 3.649-3.284 5.717-4.135 11.555-4.865 23.231-9.244 34.786-14.109 9.487-4.014 17.515 0.73 18.488 11.312 0.851 9.974 3.649 13.987 13.379 15.69 7.055 1.338 14.474 0.851 21.772 0.973 4.135 0.122 8.392 0 12.893 0-5.352 18.853-25.177 35.881-46.341 41.232-2.919 4.5-5.595 8.757-9.122 14.109 2.676 2.311 5.23 5.473 8.514 7.298 13.744 7.663 28.34 7.541 42.205 1.46 25.907-11.312 41.476-31.745 47.557-59.112 3.284-14.717-4.744-26.515-19.826-29.434zM1664.015 857.246c-4.135-8.149-3.771-12.285 0.973-17.393 7.055-7.663 15.933-10.339 26.88-6.081-12.285 6.446-16.055 19.217-27.853 23.475z" p-id="52779" fill="#bfbfbf"></path><path d="M1438.027 886.558c-3.041-7.055-5.108-14.596-8.514-21.407-4.5-9.365-9.852-10.947-19.461-6.933-1.824 0.73-3.771 1.824-5.717 1.703-9.365-0.243-17.15 3.892-24.691 8.879-5.96 3.892-7.663 3.162-11.433-3.284-3.892-6.69-7.298-13.501-11.433-19.947-8.514-13.258-12.406-13.744-24.812-3.284-3.041 2.554-5.96 6.811-9.365 7.176-8.757 1.095-10.095 7.298-11.19 13.623-3.284 18.366-6.811 36.611-9.001 55.098-0.973 8.271 0 17.028 1.703 25.177 1.581 7.906 8.149 9.609 14.839 4.987 4.622-3.162 5.595-7.663 4.987-12.771-2.068-17.88 2.919-34.543 8.392-51.084 2.919-8.757 8.028-16.42 17.15-21.164 1.46 1.703 2.919 2.676 3.284 4.014 3.041 12.163 7.298 23.961 5.96 36.975-1.338 13.501 5.96 24.934 10.46 36.854 2.068 5.717 7.055 5.717 11.798 1.581 5.96-5.108 9.001-11.19 7.906-19.217-0.608-5.23-0.487-10.46-0.122-15.69 0.973-14.96 12.285-28.218 26.637-30.529 2.554-0.365 6.203 1.338 8.028 3.284 2.068 2.189 2.919 5.717 4.135 8.636 4.014 10.217 7.663 20.434 11.92 30.529 2.189 4.987 4.622 10.46 12.041 10.582 3.649-5.96 1.46-10.947-1.095-16.177-4.5-9.001-8.514-18.244-12.406-27.61z" p-id="52780" fill="#bfbfbf"></path><path d="M1631.175 847.272c-6.811-3.041-9.001-8.514-10.582-15.204-0.851-3.771-3.527-7.176-5.108-10.947-2.554-5.838-4.744-11.798-7.176-17.758-0.851-1.946-1.703-3.892-3.284-7.419-2.068 3.527-3.771 5.352-4.257 7.419-2.068 9.001-4.014 18.123-5.595 27.367-1.703 10.582-2.311 12.649-12.285 13.258-15.204 0.851-22.623 12.163-33.448 21.042 7.663 5.96 9.73 6.933 16.42 7.419 5.23 0.365 10.582 0.243 15.812 0.487 9.244 0.365 11.312 2.676 10.095 11.92-0.243 2.433-1.338 4.622-1.703 7.055-1.216 7.906-2.554 15.812-3.284 23.839-0.487 5.717 2.189 9.244 8.392 9.365 5.23 0.122 7.419 3.284 9.73 7.663 2.554 4.744 6.203 9.365 10.582 12.528 4.744 3.527 9.609 1.703 11.92-3.771 2.189-5.23 4.014-10.582 5.352-16.177 0.608-2.433 0.365-6.568-1.216-7.784-10.825-8.514-8.149-20.434-8.514-31.38-0.243-10.703-1.338-21.772 9.852-29.191 4.135-2.554 3.041-7.541-1.703-9.73z" p-id="52781" fill="#bfbfbf"></path><path d="M1542.75 887.653c-3.162-9.974-6.811-18.974-17.636-22.988-2.433-0.973-3.892-4.014-6.203-5.717-5.23-3.649-10.339-8.028-16.177-10.46-18.974-7.906-32.597 0.608-34.908 21.407-0.243 1.581-0.608 3.284-0.365 4.865 1.703 10.703 2.554 21.772 5.473 32.11 4.865 16.663 18.244 20.434 31.989 9.852 1.338-0.973 2.433-2.189 3.649-3.162 9.244-7.419 11.92-7.176 17.515 3.162 4.5 8.149 9.974 14.596 21.407 16.907 1.338-3.041 1.824-6.081 3.527-7.906 8.028-8.514 3.162-16.298-0.973-24.204-2.433-4.744-5.717-9.001-7.298-13.866zM1494.95 876.098c-0.122 0.122-1.216-1.581-2.311-3.162 1.946-0.973 3.406-1.824 4.987-2.311 0.243-0.122 1.703 2.311 1.581 2.433-1.216 1.216-2.676 2.189-4.257 3.041z" p-id="52782" fill="#bfbfbf"></path><path d="M993.593 164.565c2.311-1.824 4.257-3.284 8.392-6.446-9.122-0.122-9.122-0.122-8.392 6.446z" p-id="52783" fill="#bfbfbf"></path></svg>